<svg xmlns="http://www.w3.org/2000/svg" width="1314.866" height="1314.142"
    viewBox="0 0 1314.866 1314.142">
    <g id="Group_285" transform="translate(-1160.067 -1769.167)">
        <g id="Group_269" transform="translate(1817.5 2330.593)">
            <path id="Path_754"
                d="M5.668,782.119c0-77.575,0-155.149,1.769-233.455,4.35-5.381,8.417-9.767,9.294-14.718,20.218-114.158,70.306-214.886,145.7-301.217,99.489-113.92,223.108-189.72,374.23-216.3,3.011-.53,4.971-7.042,7.421-10.764,77.575,0,155.149,0,233.375,1.688,5.227,4.328,9.527,8.5,14.421,9.383,114.169,20.587,215.387,70.52,301.7,145.9,113.671,99.271,188.793,223.369,216.189,373.9.559,3.069,7.047,5.059,10.769,7.552,0,77.575,0,155.149-1.752,233.426-4.344,5.313-8.35,9.644-9.323,14.574-25.935,131.469-84.791,245.091-183.761,336.459-29.248-73.989-91.143-112.553-152.4-150.206,27.907-106.563-1.648-195.257-82.049-252.2,5.242-12.887,10.424-23.706,17.666-34.472,35.432-10.906,56.283-35.262,70.279-65.862,15.042-32.885,8.159-54.532-21.715-78.755,29.12-58.091,20.77-116.81,8.272-173.895-10.4-47.481-11.157-88,39.172-115.545-42.235-37.4-92.1-44.469-142.186-50.977q.059-3.77.117-7.539l70.862-34.2c-85.433-46.369-170.948-36.741-257.449-13.512l-4.155-6.507L711.353,86.26c-51.408.659-97.841,12.395-138.392,39.2-40.025,26.453-76.86,57.733-116.99,88.342,1.1-15.725,2.1-30.17,3.2-45.845-81.855,43.106-132.622,253.578-83.212,379.817-27.784,13.634-37.983,34.636-30.588,61.629,10.744,39.213,33.566,68.818,75.518,82.982,8.025,18.53,14.72,35.594,19.711,53.791C374.358,800,346.162,866.734,362.925,949.57c3.675,18.16-1.137,26.078-17.489,34.369-63.648,32.27-122.248,70.871-153.83,139.132C98.993,1029.651,41.426,919.8,16.577,792.6,15.785,788.551,9.429,785.589,5.668,782.119Z"
                transform="translate(-663.101 -567.093)" fill="#fec200" />
        </g>
        <g id="Group_270" transform="translate(1816.36 3016.257)">
            <path id="Path_755"
                d="M753.781,1320.534c-58.683,0-117.366,0-181.336-1.449-3.938-11.476-1.715-21.476-1.4-31.536,1.01-32.518,1.317-65.057,4.26-97.592,60.67,14.171,118.566,16.83,176.208-3.515C752.7,1232.889,753.242,1276.711,753.781,1320.534Z"
                transform="translate(-661.967 -1253.487)" fill="#6b747c" />
        </g>
        <g id="Group_271" transform="translate(1712.005 2980.444)">
            <path id="Path_756"
                d="M572.938,1189.961c-.578,32.531-.885,65.07-1.895,97.588-.312,10.06-2.536,20.06-1.254,31.536-5.241,1.449-13.112,1.449-23.345,1.449-1.894-2.2-1.426-4.406-2.1-11.319-1.362-50.516-1.579-96.322-1.471-144.4-.293-9.846-.91-17.421-.848-27.066,6.015-9.042,11.351-16.016,16.687-22.99,4.192,7.283,9.885,14.132,12.155,21.971s1.12,16.674.977,27.39C571.879,1174.281,572.408,1182.121,572.938,1189.961Z"
                transform="translate(-557.458 -1217.668)" fill="#d9dada" />
        </g>
        <g id="Group_272" transform="translate(1920.959 2980.945)">
            <path id="Path_757"
                d="M756.048,1320.534c-2.806-43.823-3.345-87.646-3.967-136.011-.239-8.513-.395-12.483-.011-19,.6-11.846-.78-21.455,1.171-30.334,1.525-6.939,7.179-12.97,11-19.4,4.858,5.39,10.406,10.332,14.314,16.339,2.344,3.6,2.129,8.872,2.345,15.448-.593,7.785-.469,13.514-.97,21.866.109,48.326.845,94.029,1.581,139.733-2.713,2.89-5.426,5.78-6.6,10.019C770.406,1320.534,764.361,1320.534,756.048,1320.534Z"
                transform="translate(-766.647 -1218.178)" fill="#e1e2e2" />
        </g>
        <g id="Group_273" transform="translate(1817.637 2387.906)">
            <path id="Path_758"
                d="M906.853,691.613c-5.182,10.819-10.365,21.638-16.858,35.872-19.862,37.5-38.414,71.578-58.515,106.718-32.025,28.369-58.859,62.216-93.725,81.648-75.765,42.226-144.618,18.913-205.711-38.915-4.717-4.3-8.668-7.273-13.754-11.951-26.087-41.119-51.039-80.533-75.99-119.947-6.7-17.064-13.39-34.128-21.421-54.9-3.057-20.8-4.777-37.9-6.637-57.384,4.383-41.75,7.623-80.5,40.17-110.923,7.6-7.1,5.44-32.845-1.078-45.428-28.062-54.177-20.511-92.782,34.324-119.588,120.856-59.079,243.659-61.968,364.353.671,58.716,30.473,68.6,68.759,42.7,129.511-5.873,13.776-12.229,35.532-5.755,44.931,24.631,35.76,21.63,75.131,23.266,116.6C910.286,664.391,908.57,678,906.853,691.613Z"
                transform="translate(-663.214 -624.448)" fill="#fee7bd" />
        </g>
        <g id="Group_274" transform="translate(1814.294 2782.384)">
            <path id="Path_759"
                d="M440.6,746.172c26.655,38.281,51.607,77.695,76.954,121.329C507.442,983.289,573.16,1050.3,654.959,1095.788c5,2.778,13.621,3.885,18.387,1.475,52.45-26.521,104.052-54.4,134.183-111.13,28.458-48.879,29.178-100.586,25.5-152.988,18.552-34.081,37.1-68.163,56.906-103.591C971.647,783.078,1001.2,871.772,973.3,978.335c61.26,37.653,123.155,76.217,152.4,150.206-93.14,97.373-206.874,156.9-341.8,180.635a1344.7,1344.7,0,0,1-2.174-139.817c44.712-21.311,79.2-48.99,102.718-89.489l-102.824,65.642c-.935-4.52-.719-9.789-3.063-13.392-3.909-6.008-9.457-10.949-14.314-16.339-3.82,6.435-9.474,12.466-11,19.4-1.951,8.878-.574,18.488-3.421,30.219-61.56,15.982-119.869,16.2-177.487-3.6-.349-8.4.8-17.23-1.468-25.072s-7.962-14.688-12.155-21.971c-5.336,6.974-10.672,13.948-18.621,22.874-32.072-16.611-61.531-35.174-90.99-53.736,21.963,38.672,49.149,70.818,93.447,83.188.217,45.806.434,91.611.661,140.115-97.788-9.768-183.393-52.291-263.086-107.281-30.578-21.1-56.961-48.28-86.025-74.253,29.093-70.859,87.693-109.46,151.341-141.73,16.353-8.291,21.164-16.21,17.489-34.369C346.162,866.734,374.358,800,440.6,746.172M896.54,1065.18l.013-1.383a8.43,8.43,0,0,1-2.18,2.127l.047,1.456A7.092,7.092,0,0,1,896.54,1065.18Z"
                transform="translate(-659.87 -1019.362)" fill="#687178" />
        </g>
        <g id="Group_275" transform="translate(1835.505 2129.98)">
            <path id="Path_760"
                d="M912.445,646.277c-1.857-39.217,1.144-78.587-23.487-114.348-6.474-9.4-.118-31.156,5.755-44.931,25.9-60.752,16.016-99.038-42.7-129.511-120.694-62.639-243.5-59.75-364.353-.671-54.836,26.806-62.386,65.411-34.324,119.588,6.518,12.583,8.676,38.326,1.078,45.428C421.866,552.249,418.626,591,412.331,631.789c-5.3-8.914-8.523-19.371-12.407-29.578-7.059-18.548-14.509-36.947-21.8-55.409-51.582-125.271-.814-335.743,81.041-378.849-1.093,15.675-2.1,30.12-3.2,45.845,40.13-30.609,76.965-61.889,116.99-88.342,40.551-26.8,86.984-38.537,138.392-39.2L672.11,144.873l4.155,6.507c86.5-23.229,172.016-32.857,257.449,13.512l-70.862,34.2q-.059,3.77-.117,7.539c50.088,6.509,99.951,13.581,142.186,50.977-50.328,27.546-49.567,68.064-39.172,115.545,12.5,57.084,20.848,115.8-9.853,175.012-10.4,22.513-18.463,41.96-26.8,61.287C923.754,621.819,918.008,634.008,912.445,646.277Z"
                transform="translate(-681.123 -366.292)" fill="#8c5e42" />
        </g>
        <g id="Group_276" transform="translate(1536.008 2381.661)">
            <path id="Path_761"
                d="M375.955,547.77c9.459,17.493,16.909,35.893,23.968,54.441,3.885,10.207,7.111,20.664,12.546,31.974,3.632,18.058,5.352,35.151,7.08,54.487-40.616-10.454-63.438-40.059-74.182-79.272C337.972,582.406,348.172,561.4,375.955,547.77Z"
                transform="translate(-381.311 -618.214)" fill="#f6d89d" />
        </g>
        <g id="Group_277" transform="translate(2101.94 2384.351)">
            <path id="Path_762"
                d="M912.224,648.528c5.784-14.52,11.531-26.709,16.868-39.075,8.342-19.327,16.407-38.775,26.169-59.288,32.09,21.107,38.972,42.754,23.93,75.639-14,30.6-34.847,54.956-70.279,65.862C908.57,678,910.286,664.391,912.224,648.528Z"
                transform="translate(-947.837 -620.934)" fill="#f5d79d" />
        </g>
        <g id="Group_278" transform="translate(1816.132 2945.223)">
            <path id="Path_763"
                d="M571.841,1164.123c58.109,17.477,116.418,17.264,177.439,3.833,2.406,4.084,2.562,8.054,2.148,13.943-57.558,24.887-115.455,22.229-176.125,8.058C572.408,1182.121,571.879,1174.281,571.841,1164.123Z"
                transform="translate(-661.741 -1182.36)" fill="#464c58" />
        </g>
        <g id="Group_279" transform="translate(1650.574 2887.271)">
            <path id="Path_764"
                d="M542.87,1164.817c-44.623-10.1-71.808-42.247-93.772-80.918,29.459,18.563,58.918,37.126,90.311,55.8C541.96,1147.4,542.578,1154.972,542.87,1164.817Z"
                transform="translate(-495.965 -1124.381)" fill="#474e59" />
        </g>
        <g id="Group_280" transform="translate(1986.751 2886.208)">
            <path id="Path_765"
                d="M780.9,1147.568c34.993-23.936,69.267-45.817,103.542-67.7-23.52,40.5-58.006,68.177-102.091,86.866C780.43,1161.082,780.305,1155.352,780.9,1147.568Z"
                transform="translate(-832.503 -1123.304)" fill="#474e59" />
        </g>
        <g id="Group_281" transform="translate(1816.132 2746.951)">
            <path id="Path_766"
                d="M806.014,987.452c-28.617,55.414-80.219,83.289-132.668,109.811-4.765,2.41-13.391,1.3-18.387-1.475-81.8-45.493-147.517-112.5-136.273-226.582,4.69.458,8.641,3.431,12.3,9.129,2.781,11.114,4.415,20.436,9.153,27.747,50.085,77.273,148.271,111.137,237.1,83.043C786.117,986.316,796.388,987.9,806.014,987.452Z"
                transform="translate(-661.741 -983.883)" fill="#f5d9a3" />
        </g>
        <g id="Group_282" transform="translate(1837.253 2679.67)">
            <path id="Path_767"
                d="M807.528,986.133c-11.14,1.771-21.411.183-30.292,2.992-88.829,28.094-187.015-5.77-237.1-83.043-4.738-7.31-6.372-16.633-8.387-26.42,61.387,55.1,130.24,78.416,206,36.19,34.867-19.432,61.7-53.279,93.725-81.648C836.706,885.547,835.986,937.254,807.528,986.133Z"
                transform="translate(-682.88 -916.553)" fill="#dfc593" />
        </g>
        <g id="Group_283" transform="translate(2050.127 2827.588)">
            <path id="Path_768"
                d="M895.375,1065.426l1.177-1.63s-.013,1.383-.546,1.544S895.375,1065.426,895.375,1065.426Z"
                transform="translate(-895.979 -1064.645)" fill="#474e59" />
        </g>
        <g id="Group_284" transform="translate(2049.139 2829.396)">
            <path id="Path_769"
                d="M895.512,1065.552c.039.05-1.093,1.827-1.093,1.827s-.047-1.456.455-1.7S895.473,1065.5,895.512,1065.552Z"
                transform="translate(-894.959 -1066.459)" fill="#474e59" />
        </g>
    </g>
</svg>
